<?xml version="1.0" encoding="utf-8"?>
<!-- Generator: Adobe Illustrator 18.0.0, SVG Export Plug-In . SVG Version: 6.00 Build 0)  -->
<!DOCTYPE svg PUBLIC "-//W3C//DTD SVG 1.1//EN" "http://www.w3.org/Graphics/SVG/1.1/DTD/svg11.dtd">
<svg version="1.1" id="Layer_1" xmlns="http://www.w3.org/2000/svg" xmlns:xlink="http://www.w3.org/1999/xlink" x="0px" y="0px"
	 viewBox="0 0 128 128" enable-background="new 0 0 128 128" xml:space="preserve">
<g>
	<path fill="#F1F2F2" d="M35.2,73.5c0,0,9.3-24.2,13.7-31.3C51.3,38.3,68,29,72,27.2c4-1.8,9.4,0.1,9.4,0.1L35.2,73.5z"/>
	<path fill="#6D6E71" d="M32.7,77.3l1.6-4.1c0.4-1,9.4-24.4,13.8-31.4c2.7-4.4,20.2-13.9,23.5-15.4c4.3-1.9,9.8,0,10.1,0.1l1.4,0.5
		L32.7,77.3z M76,27.4c-1.2,0-2.5,0.2-3.6,0.7c-4.4,2-20.5,11.2-22.7,14.7c-3.2,5.1-9.1,19.7-12,27l41.9-41.9
		C78.6,27.6,77.4,27.4,76,27.4z"/>
</g>
<g>
	<path fill="#FFFFFF" d="M54.3,102.9c0,0,7.2,6.6,15.2-5.5l-11.6-0.3L54.3,102.9z"/>
	<path fill="#58595B" d="M59.3,105.6c-3.3,0-5.5-1.9-5.6-2l-0.6-0.5l4.3-6.9l13.8,0.3l-0.9,1.4c-3.1,4.6-6.4,7.1-9.9,7.6
		C60,105.5,59.6,105.6,59.3,105.6z M55.5,102.6c0.9,0.5,2.5,1.3,4.6,1c2.6-0.3,5.1-2.1,7.6-5.4l-9.3-0.2L55.5,102.6z"/>
</g>
<g>
	<path fill="#FFFFFF" d="M65.8,102.9c0,0,7.2,3.5,15.2-8.5l-11.6,2.7L65.8,102.9z"/>
	<path fill="#58595B" d="M68.5,104.3c-1.8,0-3-0.5-3.1-0.6l-0.9-0.5l4.4-6.9l14.3-3.4l-1.3,2C76.6,102.8,71.6,104.3,68.5,104.3z
		 M67.3,102.3c2,0.4,6.4,0.2,11.6-6.4L70,97.9L67.3,102.3z"/>
</g>
<g>
	<g>
		<path fill="#FEE985" d="M106.6,49.4l-57.2,57.2c-2.3,2.3-5.7,2.7-7.6,0.9L25.1,90.7c-1.9-1.9-1.5-5.3,0.9-7.6l33.6-33.6H106.6z"/>
	</g>
	<g>
		<path fill="#58595B" d="M44.9,109.4c-1.4,0-2.6-0.5-3.5-1.4L24.6,91.2c-2.1-2.1-1.8-6,0.9-8.7l33.9-33.9h49.1L50,107.1
			c-1.2,1.2-2.8,2-4.4,2.2C45.3,109.4,45.1,109.4,44.9,109.4z M59.9,50.2L26.5,83.6c-2,2-2.4,5-0.9,6.5l16.8,16.8
			c0.7,0.7,1.8,1.1,3,0.9c1.3-0.1,2.5-0.8,3.5-1.8l55.9-55.9H59.9z"/>
	</g>
</g>
<g>
	<g>
		<path fill="#FFFFFF" d="M115,41l-8.4,8.4h-47l31.9-31.9c2.3-2.3,5.7-2.7,7.6-0.9l16.8,16.8C117.8,35.3,117.4,38.7,115,41z"/>
	</g>
	<g>
		<path fill="#58595B" d="M106.9,50.2H57.8L91,17c1.2-1.2,2.8-2,4.4-2.2c1.7-0.2,3.2,0.3,4.2,1.4l16.8,16.8c1.1,1.1,1.5,2.6,1.4,4.2
			c-0.2,1.6-1,3.2-2.2,4.4L106.9,50.2z M61.4,48.7h44.9l8.2-8.2c1-1,1.6-2.3,1.8-3.5c0.1-1.2-0.2-2.3-0.9-3L98.6,17.2
			c-0.7-0.7-1.8-1.1-3-0.9c-1.3,0.1-2.5,0.8-3.5,1.8L61.4,48.7z"/>
	</g>
</g>
<g>
	<g>
		<path fill="#FEE985" d="M41.4,108.3l-2,2c0,0-0.1,0.1-0.1,0.1l-2.8,2.8c-1.5,1.5-3.8,1.8-5,0.6l-4-4l-7.7,5.1
			c-1.4,0.2-2.3-0.8-2.2-2.2l5-7.7l-4.1-4.1c-1.2-1.2-1-3.5,0.6-5l0.5-0.5c0,0,0-0.1,0.1-0.1l4.3-4.3c0.4-0.4,1.1-0.3,1.6,0.1
			l1.4,1.4l12.8,12.8l1.4,1.4C41.7,107.2,41.8,107.9,41.4,108.3z"/>
	</g>
	<g>
		<path fill="#58595B" d="M19.6,115.7c-0.7,0-1.4-0.3-1.9-0.8c-0.6-0.6-0.8-1.4-0.7-2.3l0-0.2l4.8-7.4l-3.6-3.6
			c-1.5-1.5-1.3-4.2,0.6-6.1l0.5-0.5c0,0,0.1-0.1,0.1-0.1l4.3-4.3c0.3-0.3,0.8-0.5,1.3-0.5c0.5,0,0.9,0.2,1.3,0.6l15.6,15.6
			c0.4,0.4,0.6,0.8,0.6,1.3c0,0.5-0.1,1-0.5,1.3l-2,2c0,0-0.1,0.1-0.1,0.1l-2.8,2.8c-1.8,1.8-4.6,2.1-6.1,0.6l-3.5-3.5l-7.3,4.9
			l-0.2,0C19.8,115.7,19.7,115.7,19.6,115.7z M18.4,113c0,0.4,0.1,0.7,0.3,0.9c0.2,0.2,0.5,0.3,0.9,0.3l8-5.3l4.4,4.4
			c0.9,0.9,2.7,0.7,4-0.6l2.8-2.8c0,0,0,0,0.1-0.1l0,0l2-2c0,0,0.1-0.1,0-0.2c0-0.1-0.1-0.2-0.2-0.3L25.1,91.7
			c-0.1-0.1-0.2-0.2-0.3-0.2c0,0-0.1,0-0.2,0l-4.9,4.9c-1.2,1.2-1.5,3-0.6,4l4.5,4.5L18.4,113z"/>
	</g>
</g>
<g>
	<defs>
		<rect id="SVGID_11_" y="0" width="128" height="128"/>
	</defs>
	<clipPath id="SVGID_2_">
		<use xlink:href="#SVGID_11_"  overflow="visible"/>
	</clipPath>
	<g clip-path="url(#SVGID_2_)">
		<path fill="#F1F2F2" d="M80,76.9c0,0-9.3,4.1-12.2,5.4S49,86.9,46.3,88.5c-5.4,3.5-3.4,9.8,4.3,9.1s34.6,0.9,43.4-3
			c12.7-5.7,46.7,2.9,50.7,0.9V61.2c0,0-24.8-5.7-29.5-11c-2.3-2.6-4-4.2-4-4.2L80,76.9z"/>
		<path fill="#58595B" d="M49.5,98.6c-4,0-6.2-1.9-6.9-3.9c-0.8-2.5,0.4-5.2,3.2-7c1.5-1,6.4-2.2,13-3.9c3.8-0.9,7.3-1.8,8.5-2.3
			c2.7-1.2,10.8-4.8,12.1-5.3l31.8-31.5l0.7,0.6c0.1,0.1,1.7,1.7,4,4.3c3.7,4.1,22.2,9.1,29,10.7l0.7,0.2v35.7l-0.5,0.3
			c-1.6,0.8-6.1,0.3-14.6-0.8c-11.9-1.5-28.3-3.6-36.1-0.1c-6.4,2.9-21.8,2.9-33,2.9c-4.5,0-8.5,0-10.7,0.2
			C50.3,98.6,49.8,98.6,49.5,98.6z M111.2,47.3L80.5,77.7l-0.2,0.1c-0.1,0-9.3,4.1-12.2,5.4c-1.3,0.6-4.8,1.4-8.8,2.4
			c-4.9,1.2-11.1,2.8-12.5,3.7c-2.1,1.3-3,3.2-2.5,4.8c0.5,1.5,2.4,2.9,6.1,2.6c2.3-0.2,6.2-0.2,10.8-0.2c11.1,0,26.2,0,32.2-2.7
			c8.3-3.7,24.9-1.6,37.1,0c5.4,0.7,11.1,1.4,13,1.1V61.9c-4.2-1-24.8-6.1-29.2-11.1C113.1,49.2,111.9,48,111.2,47.3z"/>
	</g>
</g>
</svg>
