<?xml version="1.0" encoding="utf-8"?>
<!-- Generator: Adobe Illustrator 18.0.0, SVG Export Plug-In . SVG Version: 6.00 Build 0)  -->
<!DOCTYPE svg PUBLIC "-//W3C//DTD SVG 1.1//EN" "http://www.w3.org/Graphics/SVG/1.1/DTD/svg11.dtd">
<svg version="1.1" id="Layer_1" xmlns="http://www.w3.org/2000/svg" xmlns:xlink="http://www.w3.org/1999/xlink" x="0px" y="0px"
	 viewBox="0 0 128 128" enable-background="new 0 0 128 128" xml:space="preserve">
<path fill-rule="evenodd" clip-rule="evenodd" fill="none" d="M19.3,13.5h89.3v101H19.3V13.5L19.3,13.5z M24.5,18.6h79v84.3h-79
	V18.6L24.5,18.6z"/>
<rect x="19.4" y="13.5" fill="#6D6E71" width="44.7" height="101"/>
<rect x="24.5" y="18.6" fill-rule="evenodd" clip-rule="evenodd" fill="#F1F2F2" width="39.5" height="84.3"/>
<path fill-rule="evenodd" clip-rule="evenodd" fill="#6D6E71" stroke="#231F20" stroke-miterlimit="10" d="M57.9,23.7
	c-6.4,1.6-12.2,5.8-14.8,12.8c-0.9,2.4-1.3,4.9-1.5,7.3c-0.8,12.8,1.2,23.1-6.7,35.5c4.1-2.8,8.5-5.2,13-7.1l1.2-0.5
	c0.8,0.9,2.2,2.4,3.3,3c0.4,0.2,1.3-2.3,1.5-3.8c0,0,0.1,0.1,0.1,0.1c7.7,6.7,12.2,6.7,19.9,0c0,0,0.1-0.1,0.1-0.1
	c0.2,1.5,1.1,4,1.5,3.8c1.1-0.6,2.5-2.1,3.3-3l1.2,0.5c4.6,1.9,9,4.3,13,7.1c-8.4-13.3-5.9-22.7-6.7-35.5c-0.2-2.5-0.5-4.9-1.5-7.3
	c-1.2-3.1-2.5-5.6-4.8-7.6c-2.3-2-7-5-10.7-3.6C65.7,23.5,62.7,22.5,57.9,23.7L57.9,23.7z M29.5,98.4h69.1V86.2
	c-1.1-1-2.2-2-3.4-2.9c-4.7-3.7-9.9-6.7-15.5-9.1c-3.1,8-8,15-15.6,20.5c-7.6-6-13.2-12.8-15.6-20.5c-5.7,2.4-11.1,5.5-15.9,9.4
	c-1,0.8-2,1.7-3,2.5V98.4L29.5,98.4z M60.9,71.9c2,1.2,4,1.2,6.1,0c4.3-2.3,7.3-5.1,9.1-8.5c0.7-1.4,1.3-3.2,1.7-5.2
	c0-0.2,0.1-0.4,0.4-0.4c1.2,0,2.5-3,2.9-6.7c0.4-3.7-0.3-6.7-1.5-6.7c-0.5,0-1.1,0.5-1.5,1.4c-0.4,0.8-0.9,1.5-1.5,0.7
	c-0.8-1-1.1-2.9-1.6-4.3c-0.9-2.6-2-2.2-3.4-1.2c-3,2.1-10,5.4-20.2,4.8c-1,0-1.5,0.8-1.8,2c-0.3,1.1-0.4,2.5-0.3,4.1
	C49.5,61.1,52.9,67.5,60.9,71.9L60.9,71.9z"/>
<path fill-rule="evenodd" clip-rule="evenodd" fill="#BCBEC0" stroke="#231F20" stroke-miterlimit="10" d="M29.4,98.4h69.1V86.2
	c-1.1-1-2.2-2-3.4-2.9c-4.7-3.7-9.9-6.7-15.5-9.1c-3.1,8-8,15-15.6,20.5c-7.6-6-13.2-12.8-15.6-20.5c-5.7,2.4-11.1,5.5-15.9,9.4
	c-1,0.8-2,1.7-3,2.5V98.4L29.4,98.4z"/>
<ellipse fill-rule="evenodd" clip-rule="evenodd" fill="none" stroke="#231F20" stroke-miterlimit="10" cx="70.5" cy="52.9" rx="0.9" ry="2.7"/>
<ellipse fill-rule="evenodd" clip-rule="evenodd" fill="#414042" stroke="#231F20" stroke-miterlimit="10" cx="56.9" cy="52.9" rx="0.9" ry="2.7"/>
<g>
	<g>
		<path fill="#231F20" d="M69.3,61.9c-0.7,3.1-4.2,3.9-6.9,3.5c-0.8-0.1-1.1,1.1-0.3,1.2c3.4,0.5,7.6-0.6,8.5-4.4
			C70.7,61.4,69.5,61.1,69.3,61.9L69.3,61.9z"/>
	</g>
</g>
<g>
	<defs>
		<rect id="SVGID_7_" x="64" y="13.5" width="44.6" height="101"/>
	</defs>
	<clipPath id="SVGID_2_">
		<use xlink:href="#SVGID_7_"  overflow="visible"/>
	</clipPath>
	<g clip-path="url(#SVGID_2_)">
		<rect x="24.5" y="18.6" fill="#FEE985" width="79" height="84.3"/>
		<path fill-rule="evenodd" clip-rule="evenodd" fill="#704A0D" stroke="#704A0D" stroke-miterlimit="10" d="M57.9,23.7
			c-6.4,1.6-12.2,5.8-14.8,12.8c-0.9,2.4-1.3,4.9-1.5,7.3c-0.8,12.8,1.2,23.1-6.7,35.5c4.1-2.8,8.5-5.2,13-7.1l1.2-0.5
			c0.8,0.9,2.2,2.4,3.3,3c0.4,0.2,1.3-2.3,1.5-3.8c0,0,0.1,0.1,0.1,0.1c7.7,6.7,12.2,6.7,19.9,0c0,0,0.1-0.1,0.1-0.1
			c0.2,1.5,1.1,4,1.5,3.8c1.1-0.6,2.5-2.1,3.3-3l1.2,0.5c4.6,1.9,9,4.3,13,7.1c-8.4-13.3-5.9-22.7-6.7-35.5
			c-0.2-2.5-0.5-4.9-1.5-7.3c-1.2-3.1-2.5-5.6-4.8-7.6c-2.3-2-7-5-10.7-3.6C65.7,23.5,62.7,22.5,57.9,23.7L57.9,23.7z M29.5,98.4
			h69.1V86.2c-1.1-1-2.2-2-3.4-2.9c-4.7-3.7-9.9-6.7-15.5-9.1c-3.1,8-8,15-15.6,20.5c-7.6-6-13.2-12.8-15.6-20.5
			c-5.7,2.4-11.1,5.5-15.9,9.4c-1,0.8-2,1.7-3,2.5V98.4L29.5,98.4z M61,71.9c2,1.2,4,1.2,6.1,0c4.3-2.3,7.3-5.1,9.1-8.5
			c0.7-1.4,1.3-3.2,1.7-5.2c0-0.2,0.1-0.4,0.4-0.4c1.2,0,2.5-3,2.9-6.7c0.4-3.7-0.3-6.7-1.5-6.7c-0.5,0-1.1,0.5-1.5,1.4
			c-0.4,0.8-0.9,1.5-1.5,0.7c-0.8-1-1.1-2.9-1.6-4.3c-0.9-2.6-2-2.2-3.4-1.2c-3,2.1-10,5.4-20.2,4.8c-1,0-1.5,0.8-1.8,2
			c-0.3,1.1-0.4,2.5-0.3,4.1C49.5,61.1,52.9,67.5,61,71.9L61,71.9z"/>
		<path fill-rule="evenodd" clip-rule="evenodd" fill="#704A0D" d="M19.4,13.5h89.3v101H19.4V13.5L19.4,13.5z M24.5,18.6h79v84.3
			h-79V18.6L24.5,18.6z"/>
		
			<ellipse fill-rule="evenodd" clip-rule="evenodd" fill="#704A0D" stroke="#704A0D" stroke-width="0.5" stroke-miterlimit="10" cx="70.5" cy="52.9" rx="0.9" ry="2.7"/>
		
			<ellipse fill-rule="evenodd" clip-rule="evenodd" fill="#704A0D" stroke="#704A0D" stroke-width="0.5" stroke-miterlimit="10" cx="56.9" cy="52.9" rx="0.9" ry="2.7"/>
		<path fill="#704A0D" d="M70.5,61.5c-0.2-0.2-0.5-0.3-0.8-0.2c-0.2,0.1-0.4,0.3-0.4,0.5c-0.7,2.9-4,3.8-6.8,3.4
			c-0.5-0.1-0.9,0.3-0.9,0.7c0,0.3,0.1,0.7,0.6,0.7c0.5,0.1,1.1,0.1,1.6,0.1c3.1,0,6.3-1.3,7-4.6C70.7,61.9,70.7,61.7,70.5,61.5z"/>
		<path fill-rule="evenodd" clip-rule="evenodd" fill="#A5711E" stroke="#704A0D" stroke-miterlimit="10" d="M29.5,98.4h69.1V86.2
			c-1.1-1-2.2-2-3.4-2.9c-4.7-3.7-9.9-6.7-15.5-9.1c-3.1,8-8,15-15.6,20.5c-7.6-6-13.2-12.8-15.6-20.5c-5.7,2.4-11.1,5.5-15.9,9.4
			c-1,0.8-2,1.7-3,2.5V98.4L29.5,98.4z"/>
	</g>
</g>
<polygon fill="#FF0000" points="58.3,78.8 58.3,84.6 65,91.3 58.3,98 58.3,103.8 71.4,91.3 "/>
</svg>
