<?xml version="1.0" encoding="utf-8"?>
<!-- Generator: Adobe Illustrator 18.0.0, SVG Export Plug-In . SVG Version: 6.00 Build 0)  -->
<!DOCTYPE svg PUBLIC "-//W3C//DTD SVG 1.1//EN" "http://www.w3.org/Graphics/SVG/1.1/DTD/svg11.dtd">
<svg version="1.1" id="Layer_1" xmlns="http://www.w3.org/2000/svg" xmlns:xlink="http://www.w3.org/1999/xlink" x="0px" y="0px"
	 viewBox="0 0 615.4 630.8" enable-background="new 0 0 615.4 630.8" xml:space="preserve">
<g>
	<path fill="#FFEA7E" d="M612.3,316.2c0,173.9-132.4,314-304.3,314S0,488.5,0,314.6s136.2-314,308-314S612.3,142.3,612.3,316.2z"/>
	<path fill="#A6720E" d="M0,314.6c1.1,0.4,1.2,1.2,1.5,1.9c4.5,9.2,9.5,18.1,15.4,26.5c4.6,6.5,9.4,12.9,14.6,18.9
		c4,4.7,8.2,9.1,12.7,13.3c6.7,6.2,13.8,11.9,21.2,17.3C74,398.7,83,404,92.4,408.7c14,7,28.6,12.3,43.9,15.8c7.9,1.8,15.9,3,23.9,4
		c10.6,1.3,21.2,1.4,31.8,1c11.4-0.4,22.8-2.2,34-4.7c12-2.6,23.7-6.3,35-11.1c9-3.8,17.7-8.1,26.1-13c8.3-4.8,16.1-10.4,23.7-16.2
		c3.9-3,7.6-6.3,11.3-9.5c3.5-3.1,6.8-6.4,10.1-9.8c7.1-7.4,13.5-15.3,19.5-23.6c7.7-10.7,14.2-22,19.8-33.9
		c5.3-11.2,9.6-22.9,12.7-34.9c2.3-8.9,4.1-17.9,5.3-27c0.6-4.5,1-9,1.3-13.5c0.6-7.8,0.4-15.6,0.2-23.4c-0.2-7.5-1.2-15-2.5-22.4
		c-1.3-7.6-2.8-15.2-4.9-22.6c-2.3-8.3-5.2-16.5-8.6-24.4c-5-11.8-10.9-23-18.1-33.6c-5.4-7.9-11.2-15.5-17.6-22.7
		c-10.5-11.7-22.3-21.9-35.3-30.8c-8.4-5.8-17.2-10.9-26.4-15.3c-13.3-6.4-27.1-11.4-41.5-14.6c-7-1.6-14.1-2.9-21.2-3.7
		c-2.3-0.2-4.5-0.7-6.8-0.7c-0.5,0-1,0-1.1-0.5c-0.1-0.7,0.7-0.7,1-0.8c8.9-3.1,17.9-5.8,27.1-8.1c8.7-2.2,17.6-3.9,26.4-5.3
		c8.8-1.4,17.6-2.3,26.5-2.8c11.5-0.8,23-0.8,34.5-0.3c4,0.2,7.9,0.9,11.9,1c3,0.1,6,0.5,9,0.8c3.9,0.4,7.8,0.9,11.7,1.6
		c4,0.6,7.9,1.5,11.9,2.2c6.9,1.3,13.7,2.9,20.5,4.9c3,0.9,6.1,1.5,9.1,2.5c7.2,2.6,14.4,4.9,21.6,7.7c5.3,2,10.4,4.3,15.5,6.7
		c8.4,3.9,16.9,7.9,24.9,12.8c9.9,6.1,19.7,12.3,29,19.2c3.7,2.7,7.2,5.7,10.8,8.4c3,2.3,5.9,4.7,8.7,7.2c3.6,3.2,7,6.5,10.5,9.8
		c7.7,7.1,15,14.5,21.6,22.6c6.6,8.1,13.4,16.1,19.2,24.8c5.7,8.6,11.3,17.2,16.3,26.2c15,26.8,25.9,55.3,32.7,85.2
		c3.4,14.8,5.6,29.8,6.8,45c1.2,14.6,1.4,29.2,0.6,43.8c-2,35.9-9.5,70.6-23.1,103.9c-20.2,49.3-50.7,91.1-91.9,125
		c-34.2,28.2-72.8,48-115.7,59.3c-18.6,4.9-37.4,7.9-56.6,9.2c-17.1,1.2-34.2,0.8-51.3-0.9c-13-1.3-25.9-3.5-38.6-6.6
		c-19.7-4.7-38.7-11.2-57.1-19.9c-13.4-6.3-26.4-13.4-38.7-21.6c-11.6-7.7-22.7-16.1-33.2-25.2c-10.6-9.2-20.5-19.1-29.8-29.6
		c-12.3-13.9-23.2-28.9-32.9-44.8c-5.6-9.2-10.7-18.7-15.3-28.5c-5.9-12.7-11.1-25.7-15.4-39c-3.2-9.7-5.7-19.5-7.9-29.4
		c-2-8.5-3.4-17.2-4.4-25.9c-0.7-5.8-1.3-11.6-1.9-17.4c-0.7-7.5-0.6-15-0.8-22.6C0.2,317.5,0.1,316.1,0,314.6z"/>
</g>
</svg>
