<?xml version="1.0" encoding="utf-8"?>
<!-- Generator: Adobe Illustrator 18.0.0, SVG Export Plug-In . SVG Version: 6.00 Build 0)  -->
<!DOCTYPE svg PUBLIC "-//W3C//DTD SVG 1.1//EN" "http://www.w3.org/Graphics/SVG/1.1/DTD/svg11.dtd">
<svg version="1.1"
	 id="Layer_1" xmlns:dc="http://purl.org/dc/elements/1.1/" xmlns:cc="http://creativecommons.org/ns#" xmlns:rdf="http://www.w3.org/1999/02/22-rdf-syntax-ns#" xmlns:svg="http://www.w3.org/2000/svg" xmlns:sodipodi="http://sodipodi.sourceforge.net/DTD/sodipodi-0.dtd" xmlns:inkscape="http://www.inkscape.org/namespaces/inkscape" sodipodi:docname="kitchen-measuringcup_pour.svg" inkscape:version="0.48.2 r9819"
	 xmlns="http://www.w3.org/2000/svg" xmlns:xlink="http://www.w3.org/1999/xlink" x="0px" y="0px" viewBox="55.8 247 64 64"
	 enable-background="new 55.8 247 64 64" xml:space="preserve">
<sodipodi:namedview  inkscape:cy="118.3965" inkscape:cx="143.2805" inkscape:zoom="0.99665109" showgrid="false" guidetolerance="10" gridtolerance="10" objecttolerance="10" borderopacity="1" pagecolor="#ffffff" bordercolor="#666666" id="namedview256" inkscape:current-layer="Layer_1" inkscape:window-maximized="0" inkscape:window-y="0" inkscape:window-x="0" inkscape:window-height="480" inkscape:window-width="646" inkscape:pageshadow="2" inkscape:pageopacity="0">
	</sodipodi:namedview>
<g id="g237">
	<g id="path239">
		<path d="M26,270.9c-0.4,0-0.7-0.2-0.9-0.5l-6.7-12.9c-0.1-0.1-0.3-0.3-0.4-0.4l0,0l-1.5-1.5l-0.4-0.1c-0.3-0.1-0.7-0.2-0.6-0.6
			l0-0.4l0.5,0c0,0,0.1,0,0.2,0l14.9-5.9c0.1,0,0.2-0.1,0.3-0.1c0.4,0,0.7,0.2,0.9,0.6l0.6,1.8c0.1,0,0.1,0,0.2,0c0.1,0,0.2,0,0.3,0
			c1,0,1.9,0.3,2.8,1c0.9,0.6,1.6,1.6,2,2.6l0.1,0.3c0.2,0.6,0.4,1.8,0.4,1.9c0.1,0.9-0.1,1.8-0.5,2.6c-0.3,0.8-1.2,1.4-1.8,1.8
			l1.7,4.2c0.2,0.5-0.1,1-0.5,1.2l-11.3,4.6C26.2,270.9,26.1,270.9,26,270.9z M35.6,258.4c0.1-0.1,0.1-0.2,0.2-0.3
			c0.2-0.4,0.3-0.9,0.3-1.4l0-0.1c0-0.5-0.1-0.9-0.3-1.3c-0.3-0.7-0.7-1.3-1.2-1.6c-0.2-0.2-0.5-0.3-0.7-0.4L35.6,258.4z"/>
		<path fill="#FFFFFF" d="M31.4,248.9c0.2,0,0.3,0.1,0.4,0.3l0.8,2.2c0.2,0,0.4-0.1,0.6-0.1c0,0,0,0,0,0c0.1,0,0.1,0,0.2,0
			c0.9,0,1.8,0.3,2.5,0.9c0.8,0.6,1.4,1.4,1.9,2.4l0.1,0.3c0.2,0.6,0.4,1.7,0.4,1.7c0.1,0.8-0.1,1.7-0.4,2.4c-0.4,1-1.9,1.7-1.9,1.8
			l1.9,4.6c0.1,0.2,0,0.5-0.3,0.6l-11.3,4.6c-0.1,0-0.1,0-0.2,0c-0.2,0-0.3-0.1-0.4-0.3l-6.7-12.9c-0.1-0.2-0.4-0.5-0.6-0.6
			l-1.5-1.5c-0.6-0.2-0.9-0.2-0.8-0.2c0,0,0.1,0,0.3,0l15-6C31.3,248.9,31.4,248.9,31.4,248.9 M35.4,259.2c0.4-0.2,0.7-0.5,0.9-0.9
			c0.2-0.5,0.3-1.1,0.3-1.7c0,0,0,0,0,0l0.2,0l-0.2,0c0-0.5-0.2-1-0.4-1.5l0,0l0,0l0,0c-0.3-0.8-0.9-1.4-1.4-1.8
			c-0.5-0.4-1-0.5-1.4-0.5c0,0-0.1,0-0.1,0c0,0,0,0,0,0c-0.1,0-0.1,0-0.2,0L35.4,259.2 M31.4,247.9L31.4,247.9c-0.2,0-0.4,0-0.5,0.1
			l-14.8,5.9c0,0-0.1,0-0.1,0h-0.9l-0.1,0.9c-0.1,0.6,0.3,1,1,1.2c0.1,0,0.2,0,0.3,0.1l1.4,1.3l0.1,0.1l0.1,0.1
			c0.1,0,0.2,0.2,0.2,0.2l6.7,12.9c0.2,0.5,0.8,0.8,1.3,0.8c0.2,0,0.4,0,0.5-0.1l11.3-4.6c0.7-0.3,1.1-1.1,0.8-1.8l-1.6-3.9
			c0.6-0.4,1.3-1,1.6-1.8c0.4-0.8,0.6-1.8,0.5-2.8c0-0.1-0.2-1.3-0.4-2l-0.1-0.3c-0.5-1.2-1.3-2.2-2.2-2.9c-1-0.7-2-1.1-3.1-1.1
			c0,0-0.1,0-0.1,0l-0.5-1.4C32.6,248.2,32,247.9,31.4,247.9L31.4,247.9z M35.6,256.8l-0.8-2.2c0.2,0.2,0.3,0.5,0.5,0.8l0,0.1l0,0
			c0.2,0.4,0.2,0.8,0.3,1.1l0,0C35.6,256.7,35.6,256.7,35.6,256.8L35.6,256.8z"/>
	</g>
	<path id="path241" fill="#F3E5C0" d="M32.3,255.9c0.2,0,0.4,0.1,0.5,0.3l3.2,8.4c0.1,0.2,0,0.4-0.2,0.5l-9.2,3.8
		c-0.2,0.1-0.4,0-0.5-0.2l-5.7-11c-0.1-0.2,0-0.3,0.2-0.4L32.3,255.9z"/>
	<g id="g243">
		<path id="path245" fill="#484546" d="M35.6,261.5l-5.4,2.1l0,0c-0.2,0.1-0.4,0-0.4-0.2l0,0c-0.1-0.2,0-0.4,0.2-0.4l5.4-2.1l0,0
			c0.2-0.1,0.4,0,0.4,0.2l0,0C35.8,261.2,35.7,261.4,35.6,261.5L35.6,261.5z"/>
		<path id="path245_1_" fill="#484546" d="M36.4,263.3l-5.4,2.1l0,0c-0.2,0.1-0.4,0-0.4-0.2l0,0c-0.1-0.2,0-0.4,0.2-0.4l5.4-2.1l0,0
			c0.2-0.1,0.4,0,0.4,0.2l0,0C36.7,263.1,36.6,263.3,36.4,263.3L36.4,263.3z"/>
		<path id="path247" fill="#484546" d="M34.8,259.6l-5.4,2.1l0,0c-0.2,0.1-0.4,0-0.4-0.2l0,0c-0.1-0.2,0-0.4,0.2-0.4l5.4-2.1l0,0
			c0.2-0.1,0.4,0,0.4,0.2l0,0C35.1,259.4,35,259.6,34.8,259.6L34.8,259.6z"/>
		<path id="path249" fill="#484546" d="M34.1,257.8l-5.4,2.1l0,0c-0.2,0.1-0.4,0-0.4-0.2l0,0c-0.1-0.2,0-0.4,0.2-0.4l5.4-2.1l0,0
			c0.2-0.1,0.4,0,0.4,0.2l0,0C34.4,257.5,34.3,257.7,34.1,257.8L34.1,257.8z"/>
		<path id="path251" fill="#484546" d="M33.4,255.9l-5.4,2.1l0,0c-0.2,0.1-0.4,0-0.4-0.2l0,0c-0.1-0.2,0-0.4,0.2-0.4l5.4-2.1l0,0
			c0.2-0.1,0.4,0,0.4,0.2l0,0C33.6,255.7,33.5,255.9,33.4,255.9L33.4,255.9z"/>
		<path id="path253" fill="#484546" d="M32.6,254.1l-5.4,2.1l0,0c-0.2,0.1-0.4,0-0.4-0.2l0,0c-0.1-0.2,0-0.4,0.2-0.4l5.4-2.1l0,0
			c0.2-0.1,0.4,0,0.4,0.2l0,0C32.9,253.8,32.8,254,32.6,254.1L32.6,254.1z"/>
	</g>
</g>
<g id="g237_1_">
	<g id="path239_1_">
		<path d="M58,265.5l4.4,4.3c0.6,0.4,1.3,1.1,1.6,1.7l19,36.6c0.3,0.6,1.1,0.9,1.7,0.6l31.9-13c0.6-0.2,1-1,0.7-1.6l-5.3-13
			c0.2-0.1,4.5-2.3,5.5-5c1-2,1.4-4.3,1.2-6.7c0,0-0.5-3.3-1-4.8l-0.3-0.7c-1.2-2.8-3-5.2-5.3-6.9c-2.2-1.6-4.9-2.6-7.7-2.5
			c0,0,0,0-0.1,0c-0.5,0-1.1,0.1-1.6,0.2l-2.1-6.1c-0.2-0.6-0.9-0.9-1.5-0.7L56.5,265C55.1,265,55.5,265,58,265.5z M110.6,277.3
			l-6.5-18.5c0.2,0,0.3-0.1,0.5-0.1c0,0,0,0,0.1,0c1.2-0.1,2.8,0.4,4.3,1.5c1.5,1.1,3,2.9,4,5.2l0,0l0,0l0,0c0.6,1.4,0.9,2.9,1,4.2
			l0.6,0l-0.6,0c0,0,0,0.1,0,0.1c0.1,1.8-0.2,3.6-0.9,4.9C112.5,276,111.6,276.9,110.6,277.3z"/>
	</g>
	<path id="path241_1_" fill="#F3E5C0" d="M102.4,266.9c0.6-0.1,1.2,0.3,1.4,0.9l9.5,24.7c0.2,0.5-0.1,1.1-0.6,1.4l-27,11.1
		c-0.5,0.2-1.2,0-1.4-0.5L67.5,272c-0.3-0.5,0-1,0.5-1L102.4,266.9z"/>
	<g id="g243_1_">
		<path id="path245_3_" fill="#484546" d="M109.2,282.1l-13.8,5.5l0,0c-0.5,0.2-1,0-1.1-0.5l0,0c-0.2-0.4,0-1,0.5-1.1l13.8-5.5l0,0
			c0.5-0.2,1,0,1.1,0.5l0,0C109.9,281.4,109.7,281.9,109.2,282.1L109.2,282.1z"/>
		<path id="path245_2_" fill="#484546" d="M111.3,286.8l-13.8,5.5l0,0c-0.5,0.2-1,0-1.1-0.5l0,0c-0.2-0.4,0-1,0.5-1.1l13.8-5.5l0,0
			c0.5-0.2,1,0,1.1,0.5l0,0C112,286.1,111.8,286.6,111.3,286.8L111.3,286.8z"/>
		<path id="path247_1_" fill="#484546" d="M107.3,277.4l-13.8,5.5l0,0c-0.5,0.2-1,0-1.1-0.5l0,0c-0.2-0.4,0-1,0.5-1.1l13.8-5.5l0,0
			c0.5-0.2,1,0,1.1,0.5l0,0C108,276.7,107.8,277.2,107.3,277.4L107.3,277.4z"/>
		<path id="path249_1_" fill="#484546" d="M105.4,272.6l-13.8,5.5l0,0c-0.5,0.2-1,0-1.1-0.5l0,0c-0.2-0.4,0-1,0.5-1.1l13.8-5.5l0,0
			c0.5-0.2,1,0,1.1,0.5l0,0C106.1,271.9,105.9,272.4,105.4,272.6L105.4,272.6z"/>
		<path id="path251_1_" fill="#484546" d="M103.5,267.9l-13.8,5.5l0,0c-0.5,0.2-1,0-1.1-0.5l0,0c-0.2-0.4,0-1,0.5-1.1l13.8-5.5l0,0
			c0.5-0.2,1,0,1.1,0.5l0,0C104.2,267.2,104,267.7,103.5,267.9L103.5,267.9z"/>
		<path id="path253_1_" fill="#484546" d="M101.7,263.2l-13.8,5.5l0,0c-0.4,0.2-1,0-1.1-0.5l0,0c-0.2-0.4,0-1,0.5-1.1l13.8-5.5l0,0
			c0.5-0.2,1,0,1.1,0.5l0,0C102.3,262.5,102.1,263,101.7,263.2L101.7,263.2z"/>
	</g>
</g>
</svg>
