<?xml version="1.0" encoding="utf-8"?>
<!-- Generator: Adobe Illustrator 18.0.0, SVG Export Plug-In . SVG Version: 6.00 Build 0)  -->
<!DOCTYPE svg PUBLIC "-//W3C//DTD SVG 1.1//EN" "http://www.w3.org/Graphics/SVG/1.1/DTD/svg11.dtd">
<svg version="1.1" id="Layer_1" xmlns="http://www.w3.org/2000/svg" xmlns:xlink="http://www.w3.org/1999/xlink" x="0px" y="0px"
	 viewBox="0 0 64 64" enable-background="new 0 0 64 64" xml:space="preserve">
<g>
	<g>
		<path fill="#D8B573" d="M-16.1,1.7c0.7-0.7,1.7-0.8,2.3-0.3l5,5C-8.2,7-8.3,8-9,8.7l-19.5,19.5c-0.7,0.7-1.7,0.8-2.3,0.3l-5-5
			c-0.6-0.6-0.4-1.6,0.3-2.3L-16.1,1.7z"/>
		<path fill="#D8B573" d="M-31.3,29l-0.6,0.6c0,0,0,0,0,0l-0.8,0.8c-0.5,0.5-1.1,0.5-1.5,0.2l-1.2-1.2l-2.3,1.5
			c-0.4,0-0.7-0.2-0.6-0.6l1.5-2.3l-1.2-1.2c-0.4-0.4-0.3-1,0.2-1.5l0.1-0.1c0,0,0,0,0,0l1.3-1.3c0.1-0.1,0.3-0.1,0.5,0l0.4,0.4
			l3.8,3.8l0.4,0.4C-31.2,28.7-31.2,28.9-31.3,29z"/>
	</g>
	<g>
		<path fill="none" stroke="#FFFFFF" stroke-width="2.8" d="M-16.1,1.7c0.7-0.7,1.7-0.8,2.3-0.3l5,5C-8.2,7-8.3,8-9,8.7l-19.5,19.5
			c-0.7,0.7-1.7,0.8-2.3,0.3l-5-5c-0.6-0.6-0.4-1.6,0.3-2.3L-16.1,1.7z"/>
		<path fill="none" stroke="#FFFFFF" stroke-width="2.8" d="M-31.3,29l-0.6,0.6c0,0,0,0,0,0l-0.8,0.8c-0.5,0.5-1.1,0.5-1.5,0.2
			l-1.2-1.2l-2.3,1.5c-0.4,0-0.7-0.2-0.6-0.6l1.5-2.3l-1.2-1.2c-0.4-0.4-0.3-1,0.2-1.5l0.1-0.1c0,0,0,0,0,0l1.3-1.3
			c0.1-0.1,0.3-0.1,0.5,0l0.4,0.4l3.8,3.8l0.4,0.4C-31.2,28.7-31.2,28.9-31.3,29z"/>
	</g>
	<g>
		<path fill="#FFD177" d="M-16.1,1.7c0.7-0.7,1.7-0.8,2.3-0.3l5,5C-8.2,7-8.3,8-9,8.7l-19.5,19.5c-0.7,0.7-1.7,0.8-2.3,0.3l-5-5
			c-0.6-0.6-0.4-1.6,0.3-2.3L-16.1,1.7z"/>
		<path fill="#FFD177" d="M-31.3,29l-0.6,0.6c0,0,0,0,0,0l-0.8,0.8c-0.5,0.5-1.1,0.5-1.5,0.2l-1.2-1.2l-2.3,1.5
			c-0.4,0-0.7-0.2-0.6-0.6l1.5-2.3l-1.2-1.2c-0.4-0.4-0.3-1,0.2-1.5l0.1-0.1c0,0,0,0,0,0l1.3-1.3c0.1-0.1,0.3-0.1,0.5,0l0.4,0.4
			l3.8,3.8l0.4,0.4C-31.2,28.7-31.2,28.9-31.3,29z"/>
	</g>
	<g>
		<path fill="none" stroke="#231F20" d="M-16.1,1.7c0.7-0.7,1.7-0.8,2.3-0.3l5,5C-8.2,7-8.3,8-9,8.7l-19.5,19.5
			c-0.7,0.7-1.7,0.8-2.3,0.3l-5-5c-0.6-0.6-0.4-1.6,0.3-2.3L-16.1,1.7z"/>
		<path fill="none" stroke="#231F20" d="M-31.3,29l-0.6,0.6c0,0,0,0,0,0l-0.8,0.8c-0.5,0.5-1.1,0.5-1.5,0.2l-1.2-1.2l-2.3,1.5
			c-0.4,0-0.7-0.2-0.6-0.6l1.5-2.3l-1.2-1.2c-0.4-0.4-0.3-1,0.2-1.5l0.1-0.1c0,0,0,0,0,0l1.3-1.3c0.1-0.1,0.3-0.1,0.5,0l0.4,0.4
			l3.8,3.8l0.4,0.4C-31.2,28.7-31.2,28.9-31.3,29z"/>
	</g>
</g>
<g>
	<g>
		<path fill="#D8B573" d="M47.2,3.2c1.4-1.4,3.5-1.6,4.6-0.5l10.1,10.1c1.1,1.1,0.9,3.2-0.5,4.6L21.9,56.9c-1.4,1.4-3.5,1.6-4.6,0.5
			L7.2,47.3c-1.1-1.1-0.9-3.2,0.5-4.6L47.2,3.2z"/>
		<path fill="#D8B573" d="M16.3,58.5l-1.2,1.2c0,0,0,0-0.1,0.1l-1.7,1.7c-0.9,0.9-2.3,1.1-3,0.3L8,59.4l-4.6,3.1
			C2.6,62.6,2,62,2.1,61.2l3-4.7l-2.5-2.5c-0.7-0.7-0.6-2.1,0.3-3l0.3-0.3c0,0,0,0,0,0l2.6-2.6c0.2-0.2,0.7-0.2,0.9,0.1L7.7,49
			l7.7,7.7l0.8,0.8C16.6,57.9,16.6,58.3,16.3,58.5z"/>
	</g>
	<g>
		<path fill="#FFD177" d="M47.2,3.2c1.4-1.4,3.5-1.6,4.6-0.5l10.1,10.1c1.1,1.1,0.9,3.2-0.5,4.6L21.9,56.9c-1.4,1.4-3.5,1.6-4.6,0.5
			L7.2,47.3c-1.1-1.1-0.9-3.2,0.5-4.6L47.2,3.2z"/>
		<path fill="#FFD177" d="M16.3,58.5l-1.2,1.2c0,0,0,0-0.1,0.1l-1.7,1.7c-0.9,0.9-2.3,1.1-3,0.3L8,59.4l-4.6,3.1
			C2.6,62.6,2,62,2.1,61.2l3-4.7l-2.5-2.5c-0.7-0.7-0.6-2.1,0.3-3l0.3-0.3c0,0,0,0,0,0l2.6-2.6c0.2-0.2,0.7-0.2,0.9,0.1L7.7,49
			l7.7,7.7l0.8,0.8C16.6,57.9,16.6,58.3,16.3,58.5z"/>
	</g>
	<g>
		<path fill="none" stroke="#231F20" stroke-width="1.5" d="M47.2,3.2c1.4-1.4,3.5-1.6,4.6-0.5l10.1,10.1c1.1,1.1,0.9,3.2-0.5,4.6
			L21.9,56.9c-1.4,1.4-3.5,1.6-4.6,0.5L7.2,47.3c-1.1-1.1-0.9-3.2,0.5-4.6L47.2,3.2z"/>
		<path fill="none" stroke="#231F20" stroke-width="1.5" d="M16.3,58.5l-1.2,1.2c0,0,0,0-0.1,0.1l-1.7,1.7c-0.9,0.9-2.3,1.1-3,0.3
			L8,59.4l-4.6,3.1C2.6,62.6,2,62,2.1,61.2l3-4.7l-2.5-2.5c-0.7-0.7-0.6-2.1,0.3-3l0.3-0.3c0,0,0,0,0,0l2.6-2.6
			c0.2-0.2,0.7-0.2,0.9,0.1L7.7,49l7.7,7.7l0.8,0.8C16.6,57.9,16.6,58.3,16.3,58.5z"/>
	</g>
</g>
</svg>
