<?xml version="1.0" encoding="utf-8"?>
<!-- Generator: Adobe Illustrator 18.0.0, SVG Export Plug-In . SVG Version: 6.00 Build 0)  -->
<!DOCTYPE svg PUBLIC "-//W3C//DTD SVG 1.1//EN" "http://www.w3.org/Graphics/SVG/1.1/DTD/svg11.dtd">
<svg version="1.1" id="Layer_1" xmlns="http://www.w3.org/2000/svg" xmlns:xlink="http://www.w3.org/1999/xlink" x="0px" y="0px"
	 viewBox="0 0 64 50.3" enable-background="new 0 0 64 50.3" xml:space="preserve">
<g>
	<path fill="#00A14B" stroke="#000000" stroke-width="0.5" stroke-miterlimit="10" d="M63.2,41.2v7c0,0.5-0.4,1-1,1H1.8
		c-0.5,0-1-0.4-1-1V32.4l16.7-13.9l21.6,18.8l8.7-8.8L63.2,41.2z"/>
	<path fill="#00ADEE" stroke="#000000" stroke-width="0.5" stroke-miterlimit="10" d="M62.2,0.8H1.8c-0.5,0-1,0.4-1,1v30.6
		l16.7-13.9l21.6,18.8l8.7-8.8l15.4,12.7V1.8C63.2,1.2,62.8,0.8,62.2,0.8z M50.5,15.4c-3.1,0-5.5-2.5-5.5-5.5c0-3.1,2.5-5.5,5.5-5.5
		c3.1,0,5.5,2.5,5.5,5.5C56.1,12.9,53.6,15.4,50.5,15.4z"/>
	<circle fill="#FFF100" stroke="#000000" stroke-width="0.5" stroke-miterlimit="10" cx="50.5" cy="9.8" r="5.5"/>
</g>
</svg>
