<?xml version="1.0" encoding="utf-8"?>
<!-- Generator: Adobe Illustrator 18.0.0, SVG Export Plug-In . SVG Version: 6.00 Build 0)  -->
<!DOCTYPE svg PUBLIC "-//W3C//DTD SVG 1.1//EN" "http://www.w3.org/Graphics/SVG/1.1/DTD/svg11.dtd">
<svg version="1.1" id="Layer_1" xmlns="http://www.w3.org/2000/svg" xmlns:xlink="http://www.w3.org/1999/xlink" x="0px" y="0px"
	 viewBox="0 0 615.7 631.1" enable-background="new 0 0 615.7 631.1" xml:space="preserve">
<g>
	<path fill="#A6720E" d="M313.7,0.2c6.4,0.3,12.8,0.3,19.2,1c7,0.8,14.1,1.3,21.1,2.5c6.7,1.1,13.4,2.4,20.1,3.9
		c5.3,1.2,10.6,2.4,15.8,3.9c7.3,2.2,14.6,4.7,21.8,7.2c7.9,2.7,15.4,6.1,23,9.4c3.9,1.7,7.8,3.6,11.6,5.6
		c7.9,4.2,15.6,8.9,23.3,13.4c8,4.7,15.1,10.4,22.6,15.8c6.4,4.6,12.5,9.7,18.3,15.1c3.7,3.5,7.3,7.1,11,10.6
		c5.6,5.3,11,10.7,15.9,16.6c8.9,10.6,17.8,21.2,25.2,33c3.9,6.2,7.7,12.5,11.4,18.9c6.5,11.2,12.2,22.7,17.2,34.6
		c9.7,23.2,16.5,47.2,20.5,72c3.2,20,4.7,40.1,4.1,60.3c-2,65.5-21.5,125.2-59.8,178.5c-36.3,50.5-83.6,87.1-141.8,109.3
		c-21.8,8.3-44.4,13.9-67.6,16.8c-19.4,2.5-38.8,3-58.3,1.8c-30.3-2-59.6-8.4-88-19.3c-24.4-9.3-47.1-21.6-68.3-36.9
		c-9-6.5-17.7-13.4-26-20.8c-10.4-9.2-20-19.1-29-29.6C63.8,509,52.5,493.1,42.8,476c-10.8-18.9-19.7-38.6-26.5-59.3
		c0-0.1,0-0.3-0.1-0.4c1.4-0.5,2.1,0.7,2.9,1.3c3.8,3.3,7.7,6.4,11.7,9.4c9.1,7.1,18.8,13.3,28.9,19c19.5,11,40.1,19.2,61.8,24.5
		c11.1,2.8,22.5,4.7,33.9,5.9c11.5,1.2,23.1,1.6,34.7,1.2c16.5-0.6,32.9-2.8,49.1-6.6c16.4-3.9,32.3-9.3,47.6-16.3
		c18.4-8.5,35.7-18.9,51.7-31.3c9.4-7.3,18.3-15.1,26.6-23.6c9.7-10,18.5-20.7,26.5-32.1c8.7-12.3,16.2-25.4,22.7-39
		c6.5-13.6,11.8-27.7,15.7-42.3c2.8-10.2,4.9-20.6,6.5-31c1.1-7.3,1.7-14.7,2.2-22.2c0.5-8.8,0.5-17.7,0.2-26.5
		c-0.4-11.1-1.7-22.1-3.6-33c-3.6-19.8-9.4-39-17.6-57.4c-5.1-11.4-11-22.3-17.6-32.8c-6.5-10.2-13.7-19.9-21.7-29.1
		c-7.7-8.9-16.1-17.2-25.1-24.9c-11.1-9.5-22.9-18-35.5-25.4c-1-0.6-2.1-1.1-3-1.7C314.1,1.7,313.4,1.2,313.7,0.2z"/>
	<path fill="#E2BC15" d="M313.7,0.2c0.9,2.1,3.1,2.6,4.8,3.6C329,10,339,17,348.5,24.7c8.2,6.6,15.9,13.6,23.1,21.3
		c8.5,9.1,16.4,18.9,23.5,29.2c7.8,11.3,14.7,23.2,20.6,35.7c6.5,13.9,11.8,28.3,15.7,43.2c2.1,8.3,3.9,16.6,5.2,25
		c0.8,4.7,1.2,9.5,1.7,14.2c1.2,10.6,1.1,21.2,1.1,31.8c0,7.3-0.7,14.6-1.5,21.9c-0.9,8.8-2.4,17.5-4.3,26.2
		c-2.4,11.2-5.6,22.1-9.5,32.9c-4.1,11.4-9.1,22.4-14.7,33.1c-6,11.5-12.8,22.4-20.5,32.8c-6.5,8.8-13.4,17.2-20.9,25.2
		c-6.6,7.1-13.8,13.6-21.2,20c-8.6,7.4-17.8,14.1-27.4,20.3c-10.9,7.1-22.4,13.1-34.2,18.5c-8.6,3.9-17.3,7.4-26.3,10.2
		c-11.9,3.8-24,6.8-36.4,8.8c-7.5,1.2-15.1,2.1-22.7,2.7c-9.5,0.8-18.9,0.9-28.4,0.6c-7.2-0.2-14.3-0.9-21.5-1.8
		c-10.5-1.3-20.9-3.2-31.1-5.9c-12-3.1-23.7-7.1-35.2-12c-15.6-6.6-30.3-14.8-44.2-24.4c-7.2-5-14.1-10.3-20.7-16.1
		c-0.8-0.7-1.6-1.5-2.7-1.8c-1.8-3.8-2.7-7.9-3.8-11.9c-3.4-11.7-6.1-23.7-8.1-35.7c-1.2-7.4-2.1-14.8-2.8-22.2
		c-1.2-12.7-1.7-25.4-1.4-38.2c0.2-9.1,0.8-18.2,1.8-27.3c1.8-16.3,4.7-32.4,8.9-48.2c4.6-17.5,10.8-34.5,18.3-51
		c11-24.1,24.9-46.5,41.5-67.2c8.9-11.1,18.4-21.5,28.8-31.2c13.4-12.6,27.8-24,43.2-34c11.3-7.4,23.1-14,35.3-19.9
		c13.4-6.4,27.2-11.8,41.4-16.2c16.1-4.9,32.4-8.5,49.1-10.7c14.7-1.9,29.4-2.8,44.2-2.6C313,0,313.3,0.1,313.7,0.2z"/>
	<path fill="#FFEA7E" d="M100.4,225.6c0.3-13.4,3.2-26.1,9.1-38.2c4.5-9.2,10.3-17.5,17.5-24.7c8.7-8.6,18.8-14.9,30.1-19.4
		c7.2-2.9,14.7-4.5,22.4-5.5c11.1-1.4,21.8-0.1,32.5,2.9c10.6,3,20.1,8,28.8,14.8c6.9,5.5,12.8,11.9,17.7,19.2
		c6.8,10.3,11.1,21.6,13.1,33.7c0.9,5,1.5,10.1,1.2,15.2c-0.6,11.3-2.7,22.2-7.3,32.7c-2.7,6.2-5.9,12-9.9,17.5
		c-5.5,7.7-12.1,14.3-19.8,19.8c-11.6,8.4-24.5,13.6-38.6,15.8c-5.2,0.8-10.4,1.4-15.6,1.1c-10.6-0.7-20.8-2.8-30.6-7.1
		c-7.3-3.2-14.1-7.3-20.2-12.3c-8.1-6.7-14.7-14.8-19.7-24c-3.6-6.7-6.5-13.6-8.2-21C101.4,239.3,100.4,232.5,100.4,225.6z"/>
</g>
</svg>
