<?xml version="1.0" encoding="utf-8"?>
<!-- Generator: Adobe Illustrator 18.0.0, SVG Export Plug-In . SVG Version: 6.00 Build 0)  -->
<!DOCTYPE svg PUBLIC "-//W3C//DTD SVG 1.1//EN" "http://www.w3.org/Graphics/SVG/1.1/DTD/svg11.dtd">
<svg version="1.1" id="Layer_1" xmlns="http://www.w3.org/2000/svg" xmlns:xlink="http://www.w3.org/1999/xlink" x="0px" y="0px"
	 viewBox="0 0 128 128" enable-background="new 0 0 128 128" xml:space="preserve">
<g>
	<g>
		<g>
			<circle fill="#808285" cx="64" cy="64" r="48"/>
		</g>
		<g>
			<path fill="#F1F2F2" d="M64.1,110.5c-11.8-0.1-22.1-4-31-11.7c-1.5-1.3-1.7-2.4-0.8-4.1c6.9-12.6,17.5-19.5,31.8-19.4
				c14.2,0.1,24.7,7,31.5,19.5c1,1.7,0.6,2.8-0.8,4.1C86,106.4,75.8,110.3,64.1,110.5z"/>
			<path fill="#58595B" d="M64.1,111.4L64.1,111.4c-11.9-0.1-22.6-4.2-31.6-12c-1.9-1.6-2.1-3.2-1-5.3c7.3-13.3,18.3-20,32.6-19.9
				c14.2,0.1,25.1,6.8,32.3,20c1.1,2.1,0.8,3.6-1.1,5.3C86.5,107.2,76,111.2,64.1,111.4L64.1,111.4z M64,76.1
				c-13.5,0-23.9,6.4-30.8,18.9c-0.7,1.3-0.6,1.9,0.6,2.9c8.7,7.5,18.9,11.4,30.4,11.5c11.4-0.2,21.5-4.1,30.1-11.5
				c1.2-1,1.3-1.6,0.6-2.9c-6.9-12.5-17.2-18.9-30.7-19C64.1,76.1,64,76.1,64,76.1z"/>
		</g>
		<g>
			<path fill="#F1F2F2" d="M64.1,32.4c10.2,0,18.7,8.5,18.6,18.7c-0.1,10.2-8.6,18.5-18.8,18.4C53.7,69.5,45.4,61.1,45.4,51
				C45.3,40.8,53.8,32.4,64.1,32.4z"/>
			<path fill="#58595B" d="M64,70.5c-0.1,0-0.1,0-0.2,0C53.1,70.4,44.4,61.7,44.4,51c0-5.2,2-10.1,5.7-13.8
				c3.7-3.7,8.6-5.8,13.8-5.8c0,0,0,0,0.1,0c5.2,0,10.1,2.1,13.9,5.8c3.7,3.7,5.7,8.7,5.7,13.8c0,5.2-2.1,10.1-5.9,13.8
				C74,68.5,69.1,70.5,64,70.5z M64,33.4c-4.7,0-9.1,1.9-12.5,5.2c-3.4,3.4-5.2,7.8-5.2,12.4c0,9.6,7.9,17.5,17.5,17.6
				c0.1,0,0.1,0,0.2,0c4.7,0,9-1.8,12.4-5.1c3.4-3.3,5.3-7.7,5.3-12.4c0-4.7-1.8-9.1-5.1-12.5C73.2,35.3,68.8,33.4,64,33.4L64,33.4
				C64,33.4,64,33.4,64,33.4z"/>
		</g>
	</g>
	<path fill="#231F20" d="M64,114.3c-27.8,0-50.3-22.6-50.3-50.3S36.2,13.7,64,13.7s50.3,22.6,50.3,50.3S91.8,114.3,64,114.3z
		 M64,18.4c-25.1,0-45.6,20.4-45.6,45.6s20.4,45.6,45.6,45.6s45.6-20.4,45.6-45.6S89.1,18.4,64,18.4z"/>
</g>
<g>
	<path fill="#58595B" d="M63.8,114.3C36,114.3,13.4,91.8,13.4,64S36,13.7,63.8,13.7s50.3,22.6,50.3,50.3S91.5,114.3,63.8,114.3z
		 M63.8,18.4c-25.1,0-45.6,20.4-45.6,45.6s20.4,45.6,45.6,45.6s45.6-20.4,45.6-45.6S88.9,18.4,63.8,18.4z"/>
</g>
<g>
	<defs>
		<rect id="SVGID_9_" x="63.7" y="13.5" width="50.3" height="101"/>
	</defs>
	<clipPath id="SVGID_2_">
		<use xlink:href="#SVGID_9_"  overflow="visible"/>
	</clipPath>
	<g clip-path="url(#SVGID_2_)">
		<g>
			<g>
				<circle fill="#A5711E" cx="63.8" cy="64" r="48"/>
			</g>
			<g>
				<path fill="#FEE985" d="M63.9,110.5c-11.8-0.1-22.1-4-31-11.7c-1.5-1.3-1.7-2.4-0.8-4.1C39,82.1,49.6,75.1,63.9,75.2
					c14.2,0.1,24.7,7,31.5,19.5c1,1.7,0.6,2.8-0.8,4.1C85.7,106.4,75.5,110.3,63.9,110.5z"/>
				<path fill="#704A0D" d="M63.9,111.4L63.9,111.4c-11.9-0.1-22.6-4.2-31.6-12c-1.9-1.6-2.1-3.2-1-5.3c7.3-13.3,18.3-20,32.6-19.9
					c14.2,0.1,25.1,6.8,32.3,20c1.1,2.1,0.8,3.6-1.1,5.3C86.3,107.2,75.7,111.2,63.9,111.4L63.9,111.4z M63.7,76.1
					c-13.5,0-23.9,6.4-30.8,18.9c-0.7,1.3-0.6,1.9,0.6,2.9c8.7,7.5,18.9,11.4,30.4,11.5c11.4-0.2,21.5-4.1,30.1-11.5
					c1.2-1,1.3-1.6,0.6-2.9c-6.9-12.5-17.2-18.9-30.7-19C63.9,76.1,63.8,76.1,63.7,76.1z"/>
			</g>
			<g>
				<path fill="#FEE985" d="M63.8,32.4c10.2,0,18.7,8.5,18.6,18.7c-0.1,10.2-8.6,18.5-18.8,18.4C53.4,69.5,45.1,61.1,45.1,51
					C45.1,40.8,53.6,32.4,63.8,32.4z"/>
				<path fill="#704A0D" d="M63.7,70.5c-0.1,0-0.1,0-0.2,0C52.9,70.4,44.2,61.7,44.2,51c0-5.2,2-10.1,5.7-13.8
					c3.7-3.7,8.6-5.8,13.8-5.8c0,0,0,0,0.1,0c5.2,0,10.1,2.1,13.9,5.8c3.7,3.7,5.7,8.7,5.7,13.8c0,5.2-2.1,10.1-5.9,13.8
					C73.7,68.5,68.9,70.5,63.7,70.5z M63.8,33.4c-4.7,0-9.1,1.9-12.5,5.2c-3.4,3.4-5.2,7.8-5.2,12.4c0,9.6,7.9,17.5,17.5,17.6
					c0.1,0,0.1,0,0.2,0c4.7,0,9-1.8,12.4-5.1c3.4-3.3,5.3-7.7,5.3-12.4c0-4.7-1.8-9.1-5.1-12.5C73,35.3,68.5,33.4,63.8,33.4
					L63.8,33.4C63.8,33.4,63.8,33.4,63.8,33.4z"/>
			</g>
		</g>
		<path fill="#704A0D" d="M63.8,114.3C36,114.3,13.4,91.8,13.4,64S36,13.7,63.8,13.7s50.3,22.6,50.3,50.3S91.5,114.3,63.8,114.3z
			 M63.8,18.4c-25.1,0-45.6,20.4-45.6,45.6s20.4,45.6,45.6,45.6s45.6-20.4,45.6-45.6S88.9,18.4,63.8,18.4z"/>
	</g>
</g>
<polygon fill="#FF0000" points="58.5,78.8 58.5,84.6 65.3,91.3 58.5,98 58.5,103.8 71.7,91.3 "/>
</svg>
