<?xml version="1.0" encoding="utf-8"?>
<!-- Generator: Adobe Illustrator 18.0.0, SVG Export Plug-In . SVG Version: 6.00 Build 0)  -->
<!DOCTYPE svg PUBLIC "-//W3C//DTD SVG 1.1//EN" "http://www.w3.org/Graphics/SVG/1.1/DTD/svg11.dtd">
<svg version="1.1" id="Layer_1" xmlns="http://www.w3.org/2000/svg" xmlns:xlink="http://www.w3.org/1999/xlink" x="0px" y="0px"
	 viewBox="0 0 615.7 631" enable-background="new 0 0 615.7 631" xml:space="preserve">
<g>
	<path fill="#E2BC15" d="M1.3,342.5c-0.8-2.9-0.6-5.8-0.8-8.8c-0.5-9.1-0.7-18.2-0.4-27.3c0.3-9.6,1-19.3,2.1-28.9
		c2.8-24.4,8.4-48.1,16.7-71.3c5.1-14.3,11.3-28.1,18.4-41.5c8.4-15.9,18.1-30.9,29.1-45.1c5.9-7.7,12.3-15,18.9-22.2
		c15-16.1,31.5-30.3,49.5-43c13.9-9.8,28.5-18.3,43.9-25.6c12.8-6,25.9-11.2,39.4-15.3c5-1.5,10-3,15.1-4.3c0.5-0.1,1-0.1,1.5-0.2
		c1,0.5,2.1,0.9,3.3,1.1c12.9,2.9,25.5,7,37.6,12.2c19.4,8.4,37.3,19.3,53.4,33.1c4.9,4.2,9.8,8.5,14.3,13.2
		c13.1,13.7,24.4,28.7,33.6,45.3c6.7,12.2,12.3,24.8,16.6,38c4.6,14.2,7.7,28.8,9.3,43.7c1.3,11.2,1.4,22.5,1,33.8
		c-0.4,12.2-2.1,24.2-4.7,36.2c-3.1,14.2-7.5,28-13.3,41.3c-8.7,20-19.9,38.4-33.9,55.2c-4.4,5.2-8.9,10.3-13.7,15.1
		c-8.7,8.6-18,16.6-28,23.7c-9.8,7-20,13.1-30.8,18.5c-20.4,10.1-41.8,17-64.3,20.4c-9.1,1.4-18.3,2.1-27.5,2.5
		c-5.9,0.3-11.8-0.1-17.6-0.3c-7.8-0.3-15.6-1.3-23.3-2.6c-11.4-1.9-22.5-4.7-33.3-8.4c-15-5.1-29.2-11.8-42.7-20.1
		c-10.8-6.7-21-14.2-30.5-22.7c-12.9-11.6-24.3-24.6-34-39C4.5,347,3.2,344.6,1.3,342.5z"/>
	<path fill="#A6720E" d="M1.3,342.5c1.9,0.5,2.4,2.4,3.3,3.7c4.3,6.8,9.2,13.2,14.2,19.4c5.9,7.3,12.5,13.9,19.3,20.3
		c6.6,6.2,13.7,11.8,21.1,17.1c10.2,7.2,20.9,13.4,32.1,18.7c14.1,6.6,28.7,11.6,43.9,15.1c8.2,1.8,16.4,3,24.6,4.1
		c3.8,0.5,7.6,0.6,11.4,0.8c2.9,0.1,5.8,0.3,8.6,0.3c5.3,0,10.6-0.2,15.9-0.6c5.3-0.4,10.7-0.9,16-1.6c5.9-0.8,11.8-1.9,17.7-3.2
		c11.4-2.5,22.5-6,33.3-10.3c12.6-5,24.6-11.2,36-18.3c8-5,15.6-10.6,23-16.5c3.9-3.1,7.6-6.4,11.2-9.9c3.3-3.2,6.6-6.4,9.7-9.8
		c6.7-7,12.8-14.5,18.5-22.4c6.9-9.6,13.1-19.7,18.4-30.3c4-8.1,7.6-16.3,10.7-24.8c4.3-11.9,7.5-24.1,9.8-36.5
		c0.9-5.1,1.5-10.2,2.1-15.3c1.3-10.7,1.2-21.4,1.1-32.2c-0.1-5.8-0.8-11.6-1.4-17.3c-1.1-9.7-3-19.2-5.4-28.7
		c-2.7-10.4-6.2-20.5-10.5-30.4c-5.6-13.1-12.4-25.5-20.5-37.2c-4.7-6.8-9.8-13.4-15.3-19.6c-3.7-4.1-7.3-8.2-11.3-12
		c-11.8-11.1-24.5-21-38.4-29.3c-14.6-8.7-30-15.5-46.1-20.5c-5.8-1.8-11.8-3.3-17.8-4.7c-0.8-0.2-1.5-0.3-1.7-1.2
		c7.6-2.1,15.3-3.5,23-4.9c8.9-1.6,17.8-2.7,26.7-3.4c11.2-0.8,22.4-1.2,33.6-0.7c4.9,0.2,9.8,0.4,14.6,0.9c6.2,0.6,12.4,1,18.6,2.2
		c5.4,1,10.9,1.6,16.3,2.7c7.2,1.4,14.4,3.1,21.5,5.2c8,2.4,16.2,4.6,24,7.7c4.2,1.7,8.3,3.5,12.5,5.2c5.7,2.2,11.2,4.7,16.6,7.5
		c4.9,2.5,9.7,5.2,14.5,7.9c4.6,2.5,9.2,5.1,13.6,8c6,4,12.1,7.8,17.8,12.2c1.1,0.8,2,1.8,3,2.7c2.3,6,5.4,11.6,8,17.5
		c5.3,12.3,10.1,24.8,13.9,37.7c4.7,15.5,8.3,31.2,10.7,47.2c1.1,7.4,1.9,14.9,2.6,22.3c1.4,14.3,1.2,28.6,1,42.8
		c-0.1,8.6-1,17.1-2,25.6c-1.4,11.9-3.3,23.6-5.9,35.3c-3.7,16.9-8.6,33.4-14.8,49.5c-4.9,12.8-10.5,25.4-16.9,37.5
		c-7.1,13.7-15.2,26.8-24,39.4c-7,10.1-14.7,19.8-22.7,29.1c-3,3.5-6.1,7-9.3,10.2c-4.6,4.6-9.1,9.4-13.8,13.9
		c-11.9,11.4-24.6,21.9-38,31.5c-16.6,11.8-34,22.2-52.4,31c-24.1,11.5-49.2,20.2-75.3,25.9c-12.3,2.7-24.7,4.7-37.2,6
		c-5.8,0.6-11.6,0.9-17.4,1.4c-5.5,0.4-11,0.3-16.5,0.5c-6.3,0.2-12.7-0.1-19-0.5c-5.6-0.3-11.1-0.7-16.7-1.2
		c-9-0.9-17.9-2.2-26.8-3.8c-1.4-0.3-2.8-0.5-4.2-0.6c-2.5-1.4-4.5-3.5-6.6-5.4c-7.2-6.3-14.2-13-20.8-20
		c-11.1-11.7-21.1-24.3-30.3-37.5c-10-14.4-18.7-29.6-26.1-45.5C20,429.9,12.1,406.7,7.1,382.6c-2.5-12-4.3-24.1-5.5-36.3
		C1.5,345,1.2,343.8,1.3,342.5z"/>
	<path fill="#714A00" d="M114.3,560.7c0.6-0.7,1.5-0.5,2.2-0.4c5.8,1.2,11.6,2.1,17.5,2.9c5.2,0.7,10.4,1.1,15.6,1.6
		c8.5,0.8,16.9,1,25.4,1.3c7.2,0.2,14.3-0.1,21.4-0.5c2.4-0.1,4.7-0.2,7.1-0.3c5.3-0.3,10.5-0.9,15.8-1.5c5.6-0.6,11.1-1.5,16.6-2.4
		c10-1.6,19.9-3.9,29.7-6.4c14.9-3.8,29.5-8.8,43.8-14.6c10.1-4.1,20.1-8.8,29.7-13.9c13.2-7,25.9-14.7,38.1-23.3
		c8.7-6.1,17.1-12.5,25.1-19.4c6.1-5.2,11.9-10.7,17.7-16.1c4.7-4.3,9-9.1,13.4-13.7c7.1-7.5,13.7-15.4,20.1-23.6
		c6.3-8.1,12.1-16.6,17.8-25.2c5.1-7.8,9.7-15.8,14.1-24c6.3-11.7,11.9-23.7,16.8-36c5.4-13.4,9.8-27.1,13.5-41.1
		c3-11.4,5.4-22.9,7.2-34.6c1-6.7,1.9-13.3,2.4-20.1c0.4-5.3,0.8-10.7,1.2-16c0.7-10.6,0.4-21.1,0.2-31.7c-0.2-7.5-0.9-15-1.7-22.5
		c-1.8-16.9-4.9-33.6-9.3-50.1c-4-15.2-9.1-29.9-15.1-44.4c-2.8-6.8-6.1-13.4-9.1-20.1c-0.3-0.7-1.1-1.5-0.4-2.4
		c2.4,1.4,4.3,3.4,6.5,4.9c2.7,1.9,5.2,4.1,7.7,6.3c5.1,4.4,10.3,8.8,14.9,13.7c6.1,6.5,12.8,12.5,18.4,19.5
		c7.3,9.2,15.1,18.1,21.5,28c4.7,7.4,9.4,14.8,13.8,22.4c15.9,27.3,26.9,56.5,34,87.3c3.4,14.7,5.6,29.7,6.8,44.8
		c1.4,16.8,1.5,33.6,0.2,50.3c-2.5,33.6-10,66.1-22.7,97.3c-20.2,49.3-50.7,91.1-91.9,125c-34.2,28.2-72.8,48-115.7,59.3
		c-18.6,4.9-37.6,7.9-56.8,9.2c-43.9,2.8-86.4-3.6-127.6-19.3c-19.6-7.5-38.1-16.9-55.8-28.3c-10-6.5-19.6-13.6-28.9-21
		C115,561.4,114.7,561,114.3,560.7z"/>
	<path fill="#FFEC78" d="M109,226.3c-0.4-13.5,2.8-25.4,8.4-36.8c3-6.1,6.9-11.6,11.4-16.7c9.5-11,21.4-18.6,35-23.2
		c5.9-2,12-3.2,18.3-3.7c15.2-1.3,29.4,1.9,42.8,9c4.9,2.6,9.4,5.9,13.6,9.6c8.3,7.2,14.6,15.9,19.1,25.8c3.1,6.6,5,13.6,6,20.9
		c0.8,5.2,1,10.5,0.7,15.7c-0.5,8.7-2.4,17.2-5.7,25.2c-3.2,7.9-7.6,15.1-13,21.6c-6,7.2-13.1,13.1-21.2,17.8
		c-7.7,4.5-15.9,7.5-24.6,9.3c-7.3,1.4-14.6,1.7-22.1,1.1c-10.6-0.9-20.5-4-29.8-9.1c-8.2-4.5-15.2-10.5-21.3-17.6
		c-6.8-8-11.7-17.1-14.6-27.1C109.9,240.7,108.5,233.3,109,226.3z"/>
</g>
</svg>
