<?xml version="1.0" encoding="utf-8"?>
<!-- Generator: Adobe Illustrator 18.0.0, SVG Export Plug-In . SVG Version: 6.00 Build 0)  -->
<!DOCTYPE svg PUBLIC "-//W3C//DTD SVG 1.1//EN" "http://www.w3.org/Graphics/SVG/1.1/DTD/svg11.dtd">
<svg version="1.1" id="Layer_1" xmlns="http://www.w3.org/2000/svg" xmlns:xlink="http://www.w3.org/1999/xlink" x="0px" y="0px"
	 viewBox="5.5 133.1 282.4 33" enable-background="new 5.5 133.1 282.4 33" xml:space="preserve">
<g>
	<path fill="#FFFFFF" d="M5.5,139.1c0-2.9,1.4-5.2,4.1-5.7c1.7-0.3,3.9-0.4,6.1-0.4s4.6,0.1,6.1,0.4c2.5,0.5,3.8,2.4,4.1,4.7
		c0.1,1,0.1,3.2,0.1,4.9c0,1.4,0,3.6-0.1,5.2c-0.1,2.7-1.4,4.7-4.1,5.4c-1.3,0.3-3.3,0.3-5.5,0.3h-5.6v12H5.5V139.1z M16.7,149.3
		c0.6,0,1.2,0,1.8,0c1.1-0.1,2.1-0.8,2.2-2.2c0.1-0.9,0.1-2.5,0.1-3.5c0-1,0-2.3-0.1-3.5c-0.1-1.2-1-1.8-2.1-2
		c-0.6-0.1-1.7-0.1-2.9-0.1s-2.1,0-2.8,0.1c-1.2,0.1-2.1,0.9-2.1,2.3v8.9L16.7,149.3L16.7,149.3z"/>
	<path fill="#FFFFFF" d="M40.5,140.6c5.2,0,7.3,2.7,7.3,7v11.8c0,4.5-2.5,6.3-6.6,6.6c-0.9,0-1.9,0-2.8,0c-1,0-2,0-2.8,0
		c-3.7-0.2-6.7-1.8-6.7-6.3v-3.1c0-4.9,2.9-7,7.6-7h5c0.7,0,1.4-0.4,1.4-1.4v-0.9c0-1.8-1.6-2-3.3-2h-7.6v-4.6H40.5z M42.7,154.2
		h-5.1c-2,0-3.8,0.2-3.8,2.8v1.6c0,1.6,0.6,2.4,2.2,2.7c0.7,0.1,1.6,0.1,2.4,0.1c0.6,0,1.5,0,2.1-0.1c1.7-0.2,2.2-1.1,2.2-2.6
		C42.7,158.7,42.7,154.2,42.7,154.2z"/>
	<path fill="#FFFFFF" d="M59,145.4c-0.9,0.3-1.5,1-1.6,2c0,0.5,0,1,0,1.6v17h-5v-16.4c0-1.1,0-2.2,0.1-3.2c0.3-2.9,2-4.5,4.1-5.3
		c1.3-0.5,3.1-0.5,5.2-0.5c2.1,0,3.9,0,5.2,0.5c2.1,0.7,3.8,2.4,4.1,5.3c0.1,1,0.1,2.1,0.1,3.2V166h-4.9v-17c0-0.6,0-1.1,0-1.6
		c-0.1-1-0.6-1.7-1.6-2c-0.6-0.2-1.5-0.2-2.8-0.2C60.4,145.2,59.6,145.2,59,145.4z"/>
	<path fill="#FFFFFF" d="M91.1,161.4v4.6h-5.8c-1.9,0-4.2,0-5.5-0.5c-3-1.1-3.9-3.6-3.9-7.5v-10.8c0-3.6,1.9-5.8,4.8-6.4
		c1-0.2,2.7-0.2,4.8-0.2H91v4.6h-5.5c-1.1,0-1.7,0-2.6,0.1c-1.4,0.1-2.1,1.1-2.1,2.5v9.9c0,1.5,0.2,3,1.6,3.3c0.6,0.2,2,0.2,2.9,0.2
		L91.1,161.4L91.1,161.4z"/>
	<path fill="#FFFFFF" d="M105.3,140.6c5.2,0,7.3,2.7,7.3,7v11.8c0,4.5-2.5,6.3-6.6,6.6c-0.9,0-1.9,0-2.8,0c-1,0-2,0-2.8,0
		c-3.7-0.2-6.6-1.8-6.6-6.3v-3.1c0-4.9,2.8-7,7.5-7h5c0.7,0,1.4-0.4,1.4-1.4v-0.9c0-1.8-1.6-2-3.3-2h-7.5v-4.6H105.3z M107.6,154.2
		h-5.1c-2,0-3.8,0.2-3.8,2.8v1.6c0,1.6,0.6,2.4,2.2,2.7c0.7,0.1,1.6,0.1,2.4,0.1c0.6,0,1.5,0,2.1-0.1c1.7-0.2,2.2-1.1,2.2-2.6
		C107.6,158.7,107.6,154.2,107.6,154.2z"/>
	<path fill="#FFFFFF" d="M122.4,150.4h3c1.4,0,2.1-0.9,2.5-2l2.1-7.7h5.1l-2.6,8.5c-0.4,1.2-1.4,2.8-3.3,3.3v0.2
		c1.9,0.5,3,1.8,3.6,3.5l3.2,9.8h-5.2l-2.6-8.7c-0.5-1.5-1.4-2.3-2.7-2.3h-3v11h-4.9v-32.8h4.9L122.4,150.4L122.4,150.4z"/>
	<path fill="#FFFFFF" d="M148.1,166c-1.9,0-4,0-5.3-0.5c-2.1-0.7-3.8-2.4-4-5.3c-0.1-1-0.1-1.8-0.1-2.9v-10.2c0-3.3,2.1-5.8,4.9-6.3
		c1-0.2,2.4-0.2,4.5-0.2c2.1,0,4.1,0,5.4,0.5c2.1,0.6,4,2.6,4,5.7v4.2c0,3.1-1.8,5.3-4.6,5.9c-0.8,0.2-1.9,0.2-5.4,0.2h-3.9
		c0,0.9,0,0.9,0,1c0,1.1,0,2.7,1.6,3.1c0.6,0.2,1.7,0.2,2.7,0.2h7v4.6C154.8,166,148.1,166,148.1,166z M143.6,152.4h4.2
		c1.1,0,1.8,0,2.6-0.1c1.4-0.1,2.1-1.2,2.1-2.6v-2.1c0-1.1-0.6-2-1.5-2.2c-0.7-0.2-1.6-0.2-2.8-0.2s-1.5,0-2.4,0.1
		c-1.4,0.1-2.1,1-2.1,2.4L143.6,152.4L143.6,152.4z"/>
	<g>
		<path fill="#EF3734" d="M161,139.1c0-2.9,1.4-5.2,4.1-5.7c1.7-0.3,3.9-0.4,6.1-0.4s4.6,0.1,6.1,0.4c2.5,0.5,3.8,2.4,4.1,4.7
			c0.1,1,0.1,3.2,0.1,4.9c0,1.4,0,3.6-0.1,5.2c-0.1,2.7-1.4,4.7-4.1,5.4c-1.3,0.3-3.3,0.3-5.5,0.3h-5.6v12H161V139.1z M172.2,149.3
			c0.6,0,1.2,0,1.8,0c1.1-0.1,2.1-0.8,2.2-2.2c0.1-0.9,0.1-2.5,0.1-3.5c0-1,0-2.3-0.1-3.5c-0.1-1.2-1-1.8-2.1-2
			c-0.6-0.1-1.7-0.1-2.9-0.1c-1.2,0-2.1,0-2.8,0.1c-1.2,0.1-2.1,0.9-2.1,2.3v8.9L172.2,149.3L172.2,149.3z"/>
		<path fill="#EF3734" d="M195,140.6c5.2,0,7.3,2.7,7.3,7v11.8c0,4.5-2.5,6.3-6.6,6.6c-0.9,0-1.9,0-2.8,0c-1,0-2,0-2.8,0
			c-3.7-0.2-6.7-1.8-6.7-6.3v-3.1c0-4.9,2.9-7,7.6-7h5c0.7,0,1.4-0.4,1.4-1.4v-0.9c0-1.8-1.6-2-3.3-2h-7.6v-4.6H195z M197.2,154.2
			h-5.1c-2,0-3.8,0.2-3.8,2.8v1.6c0,1.6,0.6,2.4,2.2,2.7c0.7,0.1,1.6,0.1,2.4,0.1c0.6,0,1.5,0,2.1-0.1c1.7-0.2,2.2-1.1,2.2-2.6
			C197.2,158.7,197.2,154.2,197.2,154.2z"/>
		<path fill="#EF3734" d="M221.5,145.4c-0.9,0.3-1.5,1-1.6,2c0,0.5,0,1,0,1.6v17h-5v-16.4c0-1.1,0-2.2,0.1-3.2
			c0.3-2.9,2-4.5,4.1-5.3c1.3-0.5,3.1-0.5,5.2-0.5c2.1,0,3.9,0,5.2,0.5c2.1,0.7,3.8,2.4,4.1,5.3c0.1,1,0.1,2.1,0.1,3.2V166h-4.9v-17
			c0-0.6,0-1.1,0-1.6c-0.1-1-0.6-1.7-1.6-2c-0.6-0.2-1.5-0.2-2.8-0.2S222.1,145.2,221.5,145.4z"/>
		<path fill="#EF3734" d="M261.6,166c-1.9,0-4,0-5.3-0.5c-2.1-0.7-3.8-2.4-4-5.3c-0.1-1-0.1-1.8-0.1-2.9v-10.2
			c0-3.3,2.1-5.8,4.9-6.3c1-0.2,2.4-0.2,4.5-0.2c2.1,0,4.1,0,5.4,0.5c2.1,0.6,4,2.6,4,5.7v4.2c0,3.1-1.8,5.3-4.6,5.9
			c-0.8,0.2-1.9,0.2-5.4,0.2h-3.9c0,0.9,0,0.9,0,1c0,1.1,0,2.7,1.6,3.1c0.6,0.2,1.7,0.2,2.7,0.2h7v4.6
			C268.3,166,261.6,166,261.6,166z M257.1,152.4h4.2c1.1,0,1.8,0,2.6-0.1c1.4-0.1,2.1-1.2,2.1-2.6v-2.1c0-1.1-0.6-2-1.5-2.2
			c-0.7-0.2-1.6-0.2-2.8-0.2s-1.5,0-2.4,0.1c-1.4,0.1-2.1,1-2.1,2.4L257.1,152.4L257.1,152.4z"/>
		<path fill="#EF3734" d="M274.3,147.2c0-3.9,2-5.8,4.8-6.3c1-0.2,2.7-0.2,4.8-0.2h4.1v4.6h-4.1c-1.1,0-1.7,0-2.6,0.1
			c-1.4,0.1-2.1,1.1-2.1,2.5V166h-4.9L274.3,147.2L274.3,147.2z"/>
		<path fill="#EF3734" d="M237,135.2h4.9v5.5h6.7v4.6h-6.7v12.9c0,1.9,0.4,3.2,2.7,3.2h4v4.6h-4c-4.4,0-7.7-1.4-7.7-7.5L237,135.2
			L237,135.2z"/>
		<path fill="#EF3734" d="M206.2,140.6v-5.4h0h4.9v5.4H206.2z"/>
		<path fill="#EF3734" d="M211.2,145.2v12.9c0,1.9,0,7.8,0,7.8h-5c0,0,0-1.4,0-7.5v-13.3H211.2z"/>
	</g>
</g>
</svg>
