<?xml version="1.0" encoding="utf-8"?>
<!-- Generator: Adobe Illustrator 18.0.0, SVG Export Plug-In . SVG Version: 6.00 Build 0)  -->
<!DOCTYPE svg PUBLIC "-//W3C//DTD SVG 1.1//EN" "http://www.w3.org/Graphics/SVG/1.1/DTD/svg11.dtd">
<svg version="1.1" id="Layer_1" xmlns="http://www.w3.org/2000/svg" xmlns:xlink="http://www.w3.org/1999/xlink" x="0px" y="0px"
	 viewBox="0 0 699 106" enable-background="new 0 0 699 106" xml:space="preserve">
<g>
	<path fill="#FFFFFF" d="M12.9,27.7c0-6.8,3.2-12.1,9.6-13.2c3.9-0.7,9-0.9,14.3-0.9c5.3,0,10.7,0.3,14.1,1c5.8,1.2,8.9,5.7,9.6,11
		c0.3,2.3,0.3,7.5,0.3,11.4c0,3.3,0,8.3-0.2,12c-0.3,6.3-3.3,11-9.5,12.5c-3.1,0.8-7.6,0.8-12.9,0.8H25.1v27.9H12.9V27.7z M39,51.4
		c1.3,0,2.8,0,4.1-0.1c2.6-0.2,4.8-1.9,5.1-5.2c0.2-2.2,0.2-5.9,0.2-8.2c0-2.4,0-5.4-0.3-8.1c-0.3-2.8-2.4-4.2-4.9-4.6
		c-1.5-0.2-4-0.3-6.8-0.3c-2.8,0-4.9,0-6.6,0.2c-2.9,0.3-4.8,2.2-4.8,5.4v20.8H39z"/>
	<path fill="#FFFFFF" d="M94.3,31.2c12.1,0,16.9,6.3,16.9,16.3V75c0,10.6-5.9,14.7-15.4,15.3c-2,0.1-4.4,0.1-6.5,0.1
		c-2.3,0-4.6,0-6.6-0.1C74,89.8,67.2,86,67.2,75.7v-7.3C67.2,57,73.9,52,84.8,52h11.7c1.6,0,3.2-0.9,3.2-3.2v-2.2
		c0-4.1-3.8-4.7-7.8-4.7H74.2V31.2H94.3z M99.6,62.8H87.7c-4.7,0-8.9,0.5-8.9,6.5v3.8c0,3.7,1.3,5.7,5.2,6.2
		c1.6,0.2,3.7,0.2,5.6,0.2c1.5,0,3.5,0,4.9-0.2c3.9-0.5,5.1-2.6,5.1-6V62.8z"/>
	<path fill="#FFFFFF" d="M137.4,42.3c-2.2,0.7-3.5,2.4-3.7,4.7c-0.1,1.1-0.1,2.4-0.1,3.7v39.5H122V52c0-2.5,0-5.1,0.2-7.5
		c0.7-6.8,4.7-10.6,9.6-12.3c3.1-1.1,7.2-1.1,12.2-1.1c4.8,0,9,0,12.1,1.1c4.9,1.7,8.9,5.6,9.6,12.3c0.2,2.4,0.2,5,0.2,7.5v38.2
		h-11.5V50.7c0-1.3,0-2.6-0.1-3.7c-0.2-2.3-1.5-4-3.7-4.7c-1.4-0.4-3.4-0.4-6.6-0.4S138.8,41.9,137.4,42.3z"/>
	<path fill="#FFFFFF" d="M212.3,79.5v10.8h-13.6c-4.5,0-9.8,0-12.9-1.1c-7.1-2.6-9-8.3-9-17.4V46.7c0-8.3,4.4-13.6,11.1-14.9
		c2.3-0.4,6.3-0.5,11.1-0.5h13.1V42h-12.9c-2.5,0-4,0-6,0.2c-3.2,0.3-4.9,2.6-4.9,5.9v23.1c0,3.5,0.4,6.9,3.8,7.8
		c1.5,0.4,4.6,0.4,6.8,0.4H212.3z"/>
	<path fill="#FFFFFF" d="M245.4,31.2c12.1,0,16.9,6.3,16.9,16.3V75c0,10.6-5.9,14.7-15.4,15.3c-2,0.1-4.4,0.1-6.5,0.1
		c-2.3,0-4.6,0-6.6-0.1c-8.6-0.4-15.4-4.2-15.4-14.6v-7.3C218.3,57,225,52,235.9,52h11.7c1.6,0,3.2-0.9,3.2-3.2v-2.2
		c0-4.1-3.8-4.7-7.8-4.7h-17.5V31.2H245.4z M250.7,62.8h-11.9c-4.7,0-8.9,0.5-8.9,6.5v3.8c0,3.7,1.3,5.7,5.2,6.2
		c1.6,0.2,3.7,0.2,5.6,0.2c1.5,0,3.5,0,4.9-0.2c3.9-0.5,5.1-2.6,5.1-6V62.8z"/>
	<path fill="#FFFFFF" d="M285.2,53.9h7.1c3.2,0,5-2.1,5.8-4.7l4.9-18h11.8l-6.1,19.8c-0.9,2.9-3.3,6.6-7.7,7.8v0.4
		c4.5,1.2,7,4.1,8.3,8.2l7.4,22.8h-12l-6-20.3c-1.1-3.5-3.3-5.3-6.3-5.3h-7.1v25.6h-11.5V13.8h11.5V53.9z"/>
	<path fill="#FFFFFF" d="M345.1,90.3c-4.4,0-9.4,0-12.4-1.1c-5-1.7-8.8-5.6-9.4-12.3c-0.2-2.4-0.2-4.2-0.2-6.8V46.4
		c0-7.8,5-13.4,11.4-14.7c2.3-0.5,5.7-0.5,10.5-0.5c5,0,9.5,0.1,12.5,1.1c4.9,1.5,9.4,6,9.4,13.3v9.7c0,7.3-4.2,12.4-10.7,13.7
		c-1.9,0.4-4.4,0.5-12.5,0.5h-9c0,2,0,2.2,0,2.3c0,2.5,0.1,6.3,3.7,7.3c1.5,0.4,4,0.4,6.2,0.4h16.2v10.8H345.1z M334.7,58.7h9.8
		c2.5,0,4.1,0,6.1-0.2c3.2-0.3,4.9-2.7,4.9-6v-4.8c0-2.5-1.4-4.6-3.6-5.2c-1.7-0.5-3.8-0.5-6.5-0.5s-3.6,0-5.7,0.2
		c-3.2,0.3-5,2.4-5,5.7V58.7z"/>
	<path fill="#EF3734" d="M417.2,78.9v11.3h-20.3c-4,0-9,0-12.3-1c-5.6-1.6-8.5-6.1-8.8-11.5c-0.1-1.6-0.1-5.1-0.1-7.3v-43
		c0-6.2,3.2-11.5,9.5-13c2.9-0.7,7.6-0.7,12.9-0.7h19V25h-20.2c-1.3,0-2.9,0-4.1,0.1c-2.9,0.2-4.8,2.2-4.8,5.4v40.1
		c0,1.3,0,2.7,0.1,3.5c0.2,2.8,2.2,4.5,4.5,4.7c1.2,0.1,2.7,0.1,4.7,0.1H417.2z"/>
	<path fill="#EF3734" d="M425.9,46.5c0-9,4.7-13.4,11.1-14.7c2.3-0.5,6.4-0.5,11.2-0.5h9.6V42h-9.5c-2.5,0-4,0-6,0.2
		c-3.2,0.3-4.9,2.6-4.9,5.9v42.2h-11.5V46.5z"/>
	<path fill="#EF3734" d="M484.7,90.3c-4.4,0-9.4,0-12.4-1.1c-5-1.7-8.8-5.6-9.4-12.3c-0.2-2.4-0.2-4.2-0.2-6.8V46.4
		c0-7.8,5-13.4,11.4-14.7c2.3-0.5,5.7-0.5,10.5-0.5c5,0,9.5,0.1,12.5,1.1c4.9,1.5,9.4,6,9.4,13.3v9.7c0,7.3-4.2,12.4-10.7,13.7
		c-1.9,0.4-4.4,0.5-12.5,0.5h-9c0,2,0,2.2,0,2.3c0,2.5,0.1,6.3,3.7,7.3c1.5,0.4,4,0.4,6.2,0.4h16.2v10.8H484.7z M474.2,58.7h9.8
		c2.5,0,4.1,0,6.1-0.2c3.2-0.3,4.9-2.7,4.9-6v-4.8c0-2.5-1.4-4.6-3.6-5.2c-1.7-0.5-3.8-0.5-6.5-0.5s-3.6,0-5.7,0.2
		c-3.2,0.3-5,2.4-5,5.7V58.7z"/>
	<path fill="#EF3734" d="M540,31.2c12.1,0,16.9,6.3,16.9,16.3V75c0,10.6-5.9,14.7-15.4,15.3c-2,0.1-4.4,0.1-6.5,0.1
		c-2.3,0-4.6,0-6.6-0.1C519.8,89.8,513,86,513,75.7v-7.3C513,57,519.7,52,530.6,52h11.7c1.6,0,3.2-0.9,3.2-3.2v-2.2
		c0-4.1-3.8-4.7-7.8-4.7H520V31.2H540z M545.4,62.8h-11.9c-4.7,0-8.9,0.5-8.9,6.5v3.8c0,3.7,1.3,5.7,5.2,6.2
		c1.6,0.2,3.7,0.2,5.6,0.2c1.5,0,3.5,0,4.9-0.2c3.9-0.5,5.1-2.6,5.1-6V62.8z"/>
	<path fill="#EF3734" d="M567.3,18.5h11.5v12.7h15.7v10.7h-15.7V72c0,4.5,0.9,7.5,6.3,7.5h9.4v10.8h-9.3c-10.2,0-18-3.3-18-17.5
		V18.5z"/>
	<path fill="#EF3734" d="M611.4,89.3c-4.9-1.7-8.9-5.6-9.6-12.3c-0.2-2.4-0.2-8.3-0.2-16.2c0-8.1,0-13.8,0.2-16.2
		c0.7-6.8,4.7-10.6,9.6-12.3c3.1-1.1,7.1-1.1,12.2-1.1c5,0,9.3,0,12.3,1.1c4.9,1.7,8.9,5.6,9.6,12.3c0.2,2.4,0.2,8.2,0.2,16.2
		c0,8,0,13.8-0.2,16.2c-0.7,6.8-4.7,10.6-9.6,12.3c-3,1.1-7.2,1.1-12.3,1.1C618.6,90.4,614.5,90.4,611.4,89.3z M630.4,79.2
		c2.2-0.7,3.5-2.4,3.7-4.7c0.1-1.1,0.2-7.3,0.2-13.7c0-6.3-0.1-12.6-0.2-13.7c-0.2-2.3-1.5-4-3.7-4.7c-1.4-0.4-3.5-0.4-6.8-0.4
		s-5.2,0-6.6,0.4c-2.2,0.7-3.5,2.4-3.7,4.7c-0.1,1.1-0.2,7.4-0.2,13.7c0,6.4,0.1,12.6,0.2,13.7c0.2,2.3,1.5,4,3.7,4.7
		c1.4,0.4,3.4,0.4,6.6,0.4S628.9,79.6,630.4,79.2z"/>
	<path fill="#EF3734" d="M656.6,46.5c0-9,4.7-13.4,11.1-14.7c2.3-0.5,6.4-0.5,11.2-0.5h9.6V42h-9.5c-2.5,0-4,0-6,0.2
		c-3.2,0.3-4.9,2.6-4.9,5.9v42.2h-11.5V46.5z"/>
</g>
</svg>
